<svg width="304" height="178" viewBox="0 0 304 178" fill="none" xmlns="http://www.w3.org/2000/svg">
<g clip-path="url(#clip0_3044_38559)">
<path d="M243.787 131.804C240.946 120.233 214.097 103.334 199.749 113.522C195.345 91.4775 191.225 77.7306 176.837 66.871C162.448 56.0114 138.44 70.206 134.584 99.9375C130.728 87.7154 111.124 71.2432 95.3761 85.1328C80.8047 97.9853 79.3435 119.521 80.8659 131.784H243.787V131.804Z" fill="url(#paint0_linear_3044_38559)"/>
<path d="M224.3 111.34C224.031 109.826 223.869 108.295 223.814 106.759C223.711 103.709 224.056 100.085 225.718 97.4313C227.447 94.6745 229.576 92.5732 231.592 91.3913C233.64 90.1904 235.393 90.0261 236.546 90.7514L236.547 90.7518C237.7 91.4751 238.315 93.1267 238.125 95.496C237.939 97.8283 236.976 100.663 235.25 103.42C233.568 106.103 230.681 108.152 228.152 109.542C227.102 110.118 226.021 110.636 224.915 111.094C224.684 111.19 224.477 111.272 224.3 111.34ZM207.624 100.388L207.624 100.388C208.892 99.8945 210.583 100.387 212.368 101.953C214.126 103.494 215.821 105.959 216.999 108.991C218.146 111.943 218.063 115.484 217.667 118.345C217.502 119.532 217.271 120.709 216.978 121.87C216.924 122.085 216.867 122.298 216.808 122.511C216.575 122.395 216.343 122.276 216.113 122.154C214.987 121.556 213.896 120.893 212.847 120.168C210.342 118.432 207.644 115.992 206.511 113.071C205.333 110.036 204.921 107.072 205.178 104.747C205.438 102.386 206.354 100.881 207.624 100.388ZM209.43 141.9L209.431 141.898C209.693 140.662 209.88 139.412 209.993 138.154L209.993 138.152C210.236 135.461 210.131 132.35 209.057 129.727C207.823 126.717 206.081 124.285 204.295 122.777C202.48 121.246 200.781 120.786 199.523 121.304L199.522 121.304C198.264 121.82 197.377 123.343 197.16 125.71C196.947 128.04 197.413 130.997 198.648 134.007L209.43 141.9ZM209.43 141.9C209.336 142.353 209.232 142.803 209.117 143.251L209.43 141.9ZM209.43 141.9L209.117 143.251L209.43 141.9ZM209.117 143.251L208.999 143.194C207.868 142.65 205.756 141.541 203.681 139.961C201.595 138.371 199.61 136.353 198.648 134.007L209.117 143.251ZM218.252 123.279C218.394 123.11 218.565 122.911 218.763 122.688C219.611 121.734 220.513 120.83 221.466 119.98C223.746 117.955 226.753 115.909 229.855 115.499C233.077 115.073 236.05 115.374 238.246 116.174C240.475 116.987 241.721 118.234 241.901 119.584C242.08 120.937 241.202 122.465 239.259 123.831C237.347 125.175 234.553 126.24 231.331 126.666C228.194 127.081 224.776 126.162 222.092 125.1C220.774 124.576 219.492 123.968 218.252 123.279ZM223.216 145.534C220.14 146.273 216.646 145.716 213.868 144.939C212.715 144.615 211.581 144.229 210.47 143.782C210.266 143.699 210.062 143.615 209.859 143.527C209.983 143.345 210.133 143.129 210.307 142.886C211.051 141.849 211.854 140.856 212.713 139.912C214.77 137.66 217.548 135.311 220.589 134.58C223.749 133.82 226.738 133.809 229.005 134.376C231.308 134.952 232.676 136.063 232.994 137.389C233.312 138.715 232.597 140.327 230.808 141.887C229.046 143.423 226.378 144.774 223.216 145.534Z" fill="white"/>
<path d="M209.43 141.9C209.336 142.353 209.232 142.803 209.117 143.251L208.999 143.194C207.868 142.65 205.756 141.541 203.681 139.961C201.595 138.371 199.61 136.353 198.648 134.007C197.413 130.997 196.947 128.04 197.16 125.71C197.377 123.343 198.264 121.82 199.522 121.304L199.523 121.304C200.781 120.786 202.48 121.246 204.295 122.777C206.081 124.285 207.823 126.717 209.057 129.727C210.131 132.35 210.236 135.461 209.993 138.152L209.993 138.154C209.88 139.412 209.693 140.662 209.431 141.898L209.43 141.9ZM209.43 141.9L198.648 134.007M209.43 141.9L209.117 143.251M198.648 134.007L209.117 143.251M224.3 111.34C224.031 109.826 223.869 108.295 223.814 106.759C223.711 103.709 224.056 100.085 225.718 97.4313C227.447 94.6745 229.576 92.5732 231.592 91.3913C233.64 90.1904 235.393 90.0261 236.546 90.7514L236.547 90.7518C237.7 91.4751 238.315 93.1267 238.125 95.496C237.939 97.8283 236.976 100.663 235.25 103.42C233.568 106.103 230.681 108.152 228.152 109.542C227.102 110.118 226.021 110.636 224.915 111.094C224.684 111.19 224.477 111.272 224.3 111.34ZM207.624 100.388L207.624 100.388C208.892 99.8945 210.583 100.387 212.368 101.953C214.126 103.494 215.821 105.959 216.999 108.991C218.146 111.943 218.063 115.484 217.667 118.345C217.502 119.532 217.271 120.709 216.978 121.87C216.924 122.085 216.867 122.298 216.808 122.511C216.575 122.395 216.343 122.276 216.113 122.154C214.987 121.556 213.896 120.893 212.847 120.168C210.342 118.432 207.644 115.992 206.511 113.071C205.333 110.036 204.921 107.072 205.178 104.747C205.438 102.386 206.354 100.881 207.624 100.388ZM218.252 123.279C218.394 123.11 218.565 122.911 218.763 122.688C219.611 121.734 220.513 120.83 221.466 119.98C223.746 117.955 226.753 115.909 229.855 115.499C233.077 115.073 236.05 115.374 238.246 116.174C240.475 116.987 241.721 118.234 241.901 119.584C242.08 120.937 241.202 122.465 239.259 123.831C237.347 125.175 234.553 126.24 231.331 126.666C228.194 127.081 224.776 126.162 222.092 125.1C220.774 124.576 219.492 123.968 218.252 123.279ZM223.216 145.534C220.14 146.273 216.646 145.716 213.868 144.939C212.715 144.615 211.581 144.229 210.47 143.782C210.266 143.699 210.062 143.615 209.859 143.527C209.983 143.345 210.133 143.129 210.307 142.886C211.051 141.849 211.854 140.856 212.713 139.912C214.77 137.66 217.548 135.311 220.589 134.58C223.749 133.82 226.738 133.809 229.005 134.376C231.308 134.952 232.676 136.063 232.994 137.389C233.312 138.715 232.597 140.327 230.808 141.887C229.046 143.423 226.378 144.774 223.216 145.534Z" stroke="#E1E4E5" stroke-width="1.46667"/>
<path d="M211.559 139.249C211.043 140.684 210.54 142.123 210.048 143.565L209.723 143.526L209.715 143.522L209.542 143.443C210.138 141.693 210.724 140.028 211.3 138.44L211.301 138.439C217.988 119.946 223.089 112.014 224.532 109.968L224.942 110.297C223.473 112.404 218.253 120.629 211.559 139.249ZM93.5021 103.016C93.62 102.647 93.7733 102.148 93.9432 101.543C94.453 99.7261 94.8568 97.8812 95.1525 96.0175C95.8497 91.5746 96.0061 86.1535 94.0159 81.9006C91.9706 77.5372 89.2133 74.0504 86.4382 71.9304C83.6336 69.7878 80.978 69.151 79.007 70.0772L79.0064 70.0776C77.0361 71.0008 75.8262 73.4528 75.6772 76.9826C75.5296 80.4756 76.4423 84.8285 78.4842 89.1916C80.4896 93.4765 84.3838 97.0172 87.8369 99.5064C89.274 100.54 90.7664 101.495 92.3074 102.366C92.7867 102.637 93.192 102.854 93.5021 103.016ZM120.511 91.3295L120.511 91.3291C118.595 90.2998 115.908 90.7921 112.991 92.7789C110.104 94.745 107.162 98.0753 104.886 102.319C102.65 106.487 102.138 111.727 102.206 115.986C102.239 118.105 102.416 119.959 102.584 121.282C102.653 121.829 102.721 122.284 102.776 122.63C103.142 122.505 103.633 122.33 104.219 122.106C105.979 121.432 107.699 120.656 109.368 119.781C113.344 117.69 117.781 114.58 119.999 110.44C122.276 106.193 123.423 101.897 123.465 98.4026C123.507 94.8718 122.43 92.3589 120.511 91.3295ZM110.008 151.805L110.008 151.808C110.094 152.839 110.197 153.671 110.275 154.224C110.434 154.173 110.617 154.113 110.822 154.045C112.578 153.45 115.875 152.205 119.206 150.257C122.55 148.302 125.859 145.68 127.721 142.362C130.076 138.161 131.302 133.886 131.409 130.392C131.516 126.86 130.487 124.326 128.591 123.262L128.591 123.262C126.695 122.196 123.999 122.636 121.046 124.567C118.123 126.478 115.118 129.752 112.763 133.953C110.694 137.648 109.982 142.223 109.856 146.209V146.211C109.783 148.347 109.876 150.292 110.008 151.805ZM101.261 123.214C100.985 122.782 100.701 122.356 100.41 121.934C99.3379 120.382 98.1765 118.893 96.9316 117.476C93.9591 114.103 89.8889 110.524 85.3482 109.347C80.6895 108.14 76.2498 108.042 72.8487 108.83C69.4118 109.625 67.226 111.267 66.6788 113.374C66.1316 115.485 67.246 117.983 69.8651 120.35C72.4569 122.691 76.3872 124.763 81.0459 125.971C85.6211 127.156 90.8293 126.414 94.9475 125.341C96.6595 124.892 98.3459 124.351 99.9993 123.72C100.423 123.558 100.843 123.39 101.261 123.214ZM89.8365 154.884C94.2628 156.541 99.5183 156.345 103.725 155.706C105.474 155.439 107.207 155.076 108.916 154.62C109.448 154.478 109.889 154.35 110.224 154.248C109.994 153.79 109.756 153.336 109.51 152.887C108.606 151.231 107.605 149.629 106.514 148.09C103.909 144.426 100.233 140.442 95.8409 138.798C91.3342 137.111 86.9279 136.55 83.4627 136.979C79.9609 137.412 77.6164 138.817 76.8544 140.859C76.0924 142.901 76.9405 145.502 79.2992 148.128C81.6333 150.727 85.3265 153.197 89.8365 154.884Z" fill="white" stroke="#E1E4E5" stroke-width="1.46667"/>
<path d="M92.0293 102.605C92.11 102.726 99.2061 114.639 106.726 147.757C107.301 150.292 107.853 152.833 108.38 155.38L108.542 155.346L109.726 155.097V155.09H109.733L109.78 155.083C109.927 155.036 110.372 154.901 111.037 154.679C110.45 151.84 109.831 149.007 109.181 146.181C101.648 113.285 94.6792 101.676 94.3698 101.157L92.0293 102.605Z" fill="#E1E4E5"/>
<path fill-rule="evenodd" clip-rule="evenodd" d="M203.039 97.2355C203.039 120.767 183.986 139.842 160.482 139.842C136.978 139.842 117.925 120.767 117.925 97.2355C117.925 73.704 136.978 54.6289 160.482 54.6289C183.986 54.6289 203.039 73.704 203.039 97.2355Z" fill="white" stroke="#DE5C8E" stroke-width="10.2894" stroke-linecap="round" stroke-linejoin="round"/>
<path d="M212.325 149.138L194.142 130.934" stroke="#DE5C8E" stroke-width="10.2894" stroke-linecap="round" stroke-linejoin="round"/>
<path d="M96.8482 64.4278C96.8481 64.7539 96.7838 65.0768 96.659 65.378C96.5343 65.6792 96.3514 65.9529 96.1209 66.1833C95.8905 66.4138 95.6169 66.5965 95.3159 66.7211C95.0149 66.8456 94.6923 66.9096 94.3665 66.9093C92.9955 66.9093 91.8906 65.7936 91.8906 64.4278C91.8907 64.1017 91.955 63.7788 92.0798 63.4776C92.2046 63.1763 92.3874 62.9027 92.6179 62.6722C92.8483 62.4418 93.1219 62.259 93.4229 62.1345C93.724 62.0099 94.0465 61.946 94.3723 61.9463C94.6977 61.9461 95.02 62.0102 95.3206 62.1349C95.6213 62.2596 95.8944 62.4424 96.1244 62.6729C96.3543 62.9034 96.5367 63.177 96.6609 63.4781C96.7851 63.7793 96.8487 64.102 96.8482 64.4278Z" stroke="#E1E4E5" stroke-width="2.31697" stroke-miterlimit="10"/>
<path d="M176.33 43.8344C175.221 45.4159 173.042 45.7978 171.462 44.6874C169.882 43.5771 169.501 41.395 170.61 39.8136C171.719 38.2322 173.899 37.8503 175.478 38.9606C177.058 40.0709 177.439 42.253 176.33 43.8344Z" fill="#E1E4E5"/>
<path d="M204.052 56.1117L204.21 55.9233V50.2194C204.21 44.3376 208.972 39.5664 214.851 39.5664H219.285C225.16 39.5664 229.926 44.3376 229.926 50.2194C229.926 56.1015 225.16 60.8728 219.285 60.8728H200.062L204.052 56.1117Z" fill="white" stroke="#E1E4E5" stroke-width="1.46667"/>
<path d="M211.579 50.2001C211.579 50.5549 211.438 50.895 211.187 51.1459C210.937 51.3967 210.597 51.5377 210.242 51.5379C209.888 51.5376 209.548 51.3966 209.298 51.1458C209.047 50.8949 208.907 50.5548 208.906 50.2001C208.907 49.8454 209.047 49.5053 209.298 49.2544C209.548 49.0036 209.888 48.8626 210.242 48.8623C210.597 48.8625 210.937 49.0035 211.187 49.2543C211.438 49.5052 211.579 49.8454 211.579 50.2001ZM218.415 50.2001C218.415 50.5549 218.274 50.895 218.023 51.1459C217.773 51.3967 217.433 51.5377 217.079 51.5379C216.724 51.5377 216.385 51.3967 216.134 51.1459C215.884 50.895 215.743 50.5549 215.743 50.2001C215.743 49.8454 215.884 49.5052 216.134 49.2543C216.385 49.0035 216.724 48.8625 217.079 48.8623C217.433 48.8625 217.773 49.0035 218.023 49.2543C218.274 49.5052 218.415 49.8454 218.415 50.2001ZM225.251 50.2001C225.251 50.5549 225.11 50.895 224.86 51.1459C224.609 51.3967 224.269 51.5377 223.915 51.5379C223.561 51.5377 223.221 51.3967 222.97 51.1459C222.72 50.895 222.579 50.5549 222.579 50.2001C222.579 49.8454 222.72 49.5052 222.97 49.2543C223.221 49.0035 223.561 48.8625 223.915 48.8623C224.269 48.8625 224.609 49.0035 224.86 49.2543C225.11 49.5052 225.251 49.8454 225.251 50.2001Z" fill="#E1E4E5" stroke="#E1E4E5" stroke-width="1.46667"/>
<path d="M133.788 153.786H165.513M175.571 153.786H189.112M133.788 162.185H142.92M151.198 162.308H189.112" stroke="#E1E4E5" stroke-width="1.46667" stroke-miterlimit="10" stroke-linecap="round" stroke-linejoin="round"/>
<path d="M69.525 58.0371C54.7925 61.8608 51.5819 81.5629 60.0466 90.8544" stroke="#E1E4E5" stroke-width="0.419833" stroke-miterlimit="10" stroke-dasharray="1.75 1.75"/>
<path d="M60.4678 91.2939C60.7469 91.5799 61.0387 91.8532 61.3423 92.113" stroke="#E1E4E5" stroke-width="0.419833" stroke-miterlimit="10"/>
<path d="M61.4275 88.7219C63.2964 88.8125 64.7421 90.3975 64.6513 92.2686C64.5661 94.137 62.9776 95.587 61.109 95.4961C59.2401 95.4054 57.7944 93.8204 57.8849 91.9493C57.973 90.0732 59.5586 88.6309 61.4275 88.7219Z" fill="#E1E4E5"/>
<path d="M108.971 59.1034C110.079 43.9064 128.86 37.2019 139.512 43.8675" stroke="#E1E4E5" stroke-width="0.419833" stroke-miterlimit="10" stroke-dasharray="1.75 1.75"/>
<path d="M240.905 51.4485C241.129 51.117 241.367 50.7957 241.619 50.4854" stroke="#E1E4E5" stroke-width="0.419833" stroke-miterlimit="10"/>
<path d="M137.664 45.6106C138.089 47.435 139.906 48.5736 141.728 48.1479C143.549 47.7279 144.688 45.9031 144.262 44.0787C143.837 42.2546 142.02 41.1156 140.198 41.5414C138.37 41.9658 137.238 43.7865 137.664 45.6106Z" fill="#E1E4E5"/>
<path d="M161.512 35.1483C171.057 26.4225 186.551 33.264 189.233 43.6008" stroke="#E1E4E5" stroke-width="0.419833" stroke-miterlimit="10" stroke-dasharray="1.75 1.75"/>
<path d="M187.077 43.5975C186.276 44.9711 186.733 46.7357 188.105 47.5382C189.473 48.343 191.24 47.8831 192.041 46.5095C192.842 45.1358 192.386 43.3713 191.013 42.5688C190.688 42.377 190.327 42.2514 189.953 42.1993C189.579 42.1472 189.198 42.1695 188.832 42.2651C188.466 42.3607 188.123 42.5276 187.822 42.7562C187.521 42.9848 187.268 43.2707 187.077 43.5975Z" fill="#E1E4E5"/>
<path d="M66.1281 138.156C66.171 138.29 66.1314 138.438 66.0274 138.533L62.4591 141.791C62.4143 141.832 62.3599 141.861 62.3009 141.876C62.2419 141.89 62.1802 141.89 62.1216 141.874C62.0629 141.858 62.0092 141.828 61.9653 141.786C61.9214 141.744 61.8887 141.691 61.8704 141.634L60.4075 137.026C60.3866 136.96 60.3851 136.889 60.4031 136.822C60.421 136.755 60.4577 136.695 60.5088 136.648L64.0764 133.391C64.1213 133.35 64.1757 133.321 64.2347 133.307C64.2936 133.293 64.3553 133.294 64.4139 133.309C64.4725 133.325 64.5262 133.355 64.5701 133.397C64.614 133.439 64.6467 133.491 64.6652 133.549L66.1281 138.156Z" stroke="#E1E4E5" stroke-width="1.25987" stroke-miterlimit="10"/>
<path d="M219.684 78.7147C219.659 78.7793 219.616 78.8352 219.56 78.876C219.504 78.9168 219.437 78.9406 219.368 78.9447L213.591 79.2893C213.53 79.2929 213.469 79.2813 213.414 79.2554C213.36 79.2294 213.312 79.1901 213.276 79.1409C213.241 79.0918 213.218 79.0344 213.21 78.9741C213.202 78.9138 213.21 78.8525 213.232 78.7959L215.337 73.3984C215.388 73.2665 215.512 73.1769 215.653 73.1684L221.429 72.8248C221.489 72.8213 221.55 72.833 221.605 72.859C221.66 72.8849 221.707 72.9243 221.743 72.9734C221.778 73.0225 221.801 73.0798 221.809 73.1401C221.817 73.2004 221.809 73.2616 221.787 73.3182L219.684 78.7147Z" stroke="#E1E4E5" stroke-width="1.52093" stroke-miterlimit="10"/>
<path d="M121.106 61.6492C118.936 60.5924 117.949 58.0166 118.896 55.9006C119.843 53.7847 122.374 52.9308 124.549 53.9923" fill="#E1E4E5"/>
</g>
<defs>
<linearGradient id="paint0_linear_3044_38559" x1="165.573" y1="170.247" x2="164.685" y2="-11.3719" gradientUnits="userSpaceOnUse">
<stop stop-color="white"/>
<stop offset="1" stop-color="#EEEEEE"/>
</linearGradient>
<clipPath id="clip0_3044_38559">
<rect width="304" height="178" fill="white"/>
</clipPath>
</defs>
</svg>
